<?xml version="1.0" encoding="UTF-8" standalone="no"?>
<!-- Created with Inkscape (http://www.inkscape.org/) -->

<svg
   xmlns:dc="http://purl.org/dc/elements/1.1/"
   xmlns:cc="http://creativecommons.org/ns#"
   xmlns:rdf="http://www.w3.org/1999/02/22-rdf-syntax-ns#"
   xmlns:svg="http://www.w3.org/2000/svg"
   xmlns="http://www.w3.org/2000/svg"
   xmlns:sodipodi="http://sodipodi.sourceforge.net/DTD/sodipodi-0.dtd"
   xmlns:inkscape="http://www.inkscape.org/namespaces/inkscape"
   width="64px"
   height="64px"
   id="svg2985"
   version="1.1"
   inkscape:version="0.48.4 r9939"
   sodipodi:docname="icon.svg">
  <defs
     id="defs2987" />
  <sodipodi:namedview
     id="base"
     pagecolor="#ffffff"
     bordercolor="#666666"
     borderopacity="1.0"
     inkscape:pageopacity="0.0"
     inkscape:pageshadow="2"
     inkscape:zoom="2.75"
     inkscape:cx="45.559753"
     inkscape:cy="82.273186"
     inkscape:current-layer="layer1"
     showgrid="true"
     inkscape:document-units="px"
     inkscape:grid-bbox="true"
     inkscape:window-width="1366"
     inkscape:window-height="692"
     inkscape:window-x="0"
     inkscape:window-y="24"
     inkscape:window-maximized="1" />
  <metadata
     id="metadata2990">
    <rdf:RDF>
      <cc:Work
         rdf:about="">
        <dc:format>image/svg+xml</dc:format>
        <dc:type
           rdf:resource="http://purl.org/dc/dcmitype/StillImage" />
        <dc:title></dc:title>
      </cc:Work>
    </rdf:RDF>
  </metadata>
  <g
     id="layer1"
     inkscape:label="Layer 1"
     inkscape:groupmode="layer">
    <rect
       style="fill:#000000"
       id="rect3012"
       width="60"
       height="60"
       x="2"
       y="2" />
    <path
       style="fill:#d45500;stroke:#000000;stroke-width:0.91996139px;stroke-linecap:butt;stroke-linejoin:miter;stroke-opacity:1"
       d="M 36.005435,20.075507 C 46.552158,2.0659863 60.085475,11.63742 60.085475,11.63742 46.251227,16.103412 41.601623,36.054924 36.005435,20.075507 z"
       id="path3016"
       inkscape:connector-curvature="0"
       sodipodi:nodetypes="ccc" />
    <path
       style="fill:#d45500;stroke:#000000;stroke-width:0.91996139px;stroke-linecap:butt;stroke-linejoin:miter;stroke-opacity:1"
       d="M 29.130929,20.439142 C 18.584206,2.4296219 5.0508888,12.001056 5.0508888,12.001056 18.885137,16.467047 23.534741,36.418559 29.130929,20.439142 z"
       id="path3016-0"
       inkscape:connector-curvature="0"
       sodipodi:nodetypes="ccc" />
    <path
       style="fill:#ff6600;stroke:#ff6600;stroke-width:0.83138144px;stroke-linecap:butt;stroke-linejoin:miter;stroke-opacity:1"
       d="m 50.720983,36.450412 c -7.266197,17.60774 2.176066,17.619703 2.176066,17.619703 5.177765,-18.020667 -2.176066,-17.619703 -2.176066,-17.619703 z"
       id="path3050"
       inkscape:connector-curvature="0"
       sodipodi:nodetypes="csc" />
    <path
       style="fill:#ff6600;stroke:#ff6600;stroke-width:0.83138144px;stroke-linecap:butt;stroke-linejoin:miter;stroke-opacity:1"
       d="M 39.078245,36.114602 C 31.812049,53.722341 41.254308,53.734306 41.254308,53.734306 46.432074,35.713639 39.078245,36.114602 39.078245,36.114602 z"
       id="path3050-0"
       inkscape:connector-curvature="0"
       sodipodi:nodetypes="csc" />
    <path
       style="fill:#ff6600;stroke:#ff6600;stroke-width:0.83138144px;stroke-linecap:butt;stroke-linejoin:miter;stroke-opacity:1"
       d="m 44.899616,36.449441 c -7.266199,17.60774 2.176065,17.619703 2.176065,17.619703 5.17776,-18.020667 -2.176065,-17.619703 -2.176065,-17.619703 z"
       id="path3050-02"
       inkscape:connector-curvature="0"
       sodipodi:nodetypes="csc" />
    <path
       style="fill:#ff6600;stroke:#ff6600;stroke-width:0.83138144px;stroke-linecap:butt;stroke-linejoin:miter;stroke-opacity:1"
       d="M 33.256875,36.11363 C 25.990679,53.721369 35.432941,53.733334 35.432941,53.733334 40.610707,35.712668 33.256875,36.11363 33.256875,36.11363 z"
       id="path3050-0-0"
       inkscape:connector-curvature="0"
       sodipodi:nodetypes="csc" />
    <path
       style="fill:#ff6600;stroke:#ff6600;stroke-width:0.83138144px;stroke-linecap:butt;stroke-linejoin:miter;stroke-opacity:1"
       d="M 29.008896,36.449742 C 21.7427,54.05748 31.184962,54.069444 31.184962,54.069444 36.362727,36.048778 29.008896,36.449742 29.008896,36.449742 z"
       id="path3050-3"
       inkscape:connector-curvature="0"
       sodipodi:nodetypes="csc" />
    <path
       style="fill:#ff6600;stroke:#ff6600;stroke-width:0.83138144px;stroke-linecap:butt;stroke-linejoin:miter;stroke-opacity:1"
       d="m 17.366156,36.113931 c -7.266191,17.60774 2.176066,17.619704 2.176066,17.619704 5.177766,-18.020666 -2.176066,-17.619704 -2.176066,-17.619704 z"
       id="path3050-0-2"
       inkscape:connector-curvature="0"
       sodipodi:nodetypes="csc" />
    <path
       style="fill:#ff6600;stroke:#ff6600;stroke-width:0.83138144px;stroke-linecap:butt;stroke-linejoin:miter;stroke-opacity:1"
       d="M 23.187529,36.448771 C 15.921332,54.05651 25.363595,54.068473 25.363595,54.068473 30.541355,36.047807 23.187529,36.448771 23.187529,36.448771 z"
       id="path3050-02-3"
       inkscape:connector-curvature="0"
       sodipodi:nodetypes="csc" />
    <path
       style="fill:#ff6600;stroke:#ff6600;stroke-width:0.83138144px;stroke-linecap:butt;stroke-linejoin:miter;stroke-opacity:1"
       d="M 11.544789,36.112961 C 4.278593,53.720699 13.720854,53.732662 13.720854,53.732662 18.89862,35.711997 11.544789,36.112961 11.544789,36.112961 z"
       id="path3050-0-0-7"
       inkscape:connector-curvature="0"
       sodipodi:nodetypes="csc" />
  </g>
</svg>
